<mxfile host="app.diagrams.net" modified="2022-08-09T03:40:36.674Z" agent="5.0 (Windows NT 10.0; Win64; x64) AppleWebKit/537.36 (KHTML, like Gecko) Chrome/102.0.0.0 Safari/537.36" etag="WMibqgTwX4magRzYFKoO" version="20.2.3" type="github">
  <diagram id="6I0OCvxSQrVGMHxT2VVA" name="Page-1">
    <mxGraphModel dx="705" dy="424" grid="1" gridSize="10" guides="1" tooltips="1" connect="1" arrows="1" fold="1" page="1" pageScale="1" pageWidth="850" pageHeight="1100" math="0" shadow="0">
      <root>
        <mxCell id="0" />
        <mxCell id="1" parent="0" />
        <mxCell id="dKdSaXE48SgPbhcamS2K-63" value="航班动态数据流转图&lt;br&gt;" style="text;strokeColor=none;fillColor=none;html=1;fontSize=24;fontStyle=1;verticalAlign=middle;align=center;" parent="1" vertex="1">
          <mxGeometry x="50" y="70" width="1590" height="40" as="geometry" />
        </mxCell>
        <mxCell id="wZdgkFELnF1UsSxSFUeW-1" value="信息集成系统（IIS）" style="swimlane;startSize=30;rounded=1;arcSize=0;" vertex="1" parent="1">
          <mxGeometry x="260" y="340" width="230" height="200" as="geometry">
            <mxRectangle x="260" y="340" width="150" height="30" as="alternateBounds" />
          </mxGeometry>
        </mxCell>
      </root>
    </mxGraphModel>
  </diagram>
</mxfile>
